<svg width="24" height="24" viewBox="0 0 24 24" fill="none" xmlns="http://www.w3.org/2000/svg">
<g clip-path="url(#clip0_5_2)">
<path d="M12 23.3334C18.2592 23.3334 23.3334 18.2592 23.3334 12C23.3334 5.74079 18.2592 0.666687 12 0.666687C5.74079 0.666687 0.666687 5.74079 0.666687 12C0.666687 18.2592 5.74079 23.3334 12 23.3334Z" fill="#E5A157"/>
<path d="M12 22.3333C18.0751 22.3333 23 17.4084 23 11.3333C23 5.25818 18.0751 0.333313 12 0.333313C5.92487 0.333313 1 5.25818 1 11.3333C1 17.4084 5.92487 22.3333 12 22.3333Z" fill="#EDB97F"/>
<path d="M11.04 18.6547C11.3714 18.6547 11.64 18.386 11.64 18.0547C11.64 17.7233 11.3714 17.4547 11.04 17.4547C10.7086 17.4547 10.44 17.7233 10.44 18.0547C10.44 18.386 10.7086 18.6547 11.04 18.6547Z" fill="#FFD983"/>
<path d="M5.18403 15.1574C5.62586 15.1574 5.98403 14.7992 5.98403 14.3574C5.98403 13.9155 5.62586 13.5574 5.18403 13.5574C4.74221 13.5574 4.38403 13.9155 4.38403 14.3574C4.38403 14.7992 4.74221 15.1574 5.18403 15.1574Z" fill="#FFD983"/>
<path d="M3.58136 11.586C4.13364 11.586 4.58136 11.1383 4.58136 10.586C4.58136 10.0337 4.13364 9.586 3.58136 9.586C3.02908 9.586 2.58136 10.0337 2.58136 10.586C2.58136 11.1383 3.02908 11.586 3.58136 11.586Z" fill="#FFD983"/>
<path d="M6.88139 7.48134C7.24958 7.48134 7.54806 7.18287 7.54806 6.81468C7.54806 6.44649 7.24958 6.14801 6.88139 6.14801C6.5132 6.14801 6.21472 6.44649 6.21472 6.81468C6.21472 7.18287 6.5132 7.48134 6.88139 7.48134Z" fill="#FFD983"/>
<path d="M10.6527 8.36868C11.0945 8.36868 11.4527 8.0105 11.4527 7.56868C11.4527 7.12685 11.0945 6.76868 10.6527 6.76868C10.2109 6.76868 9.85272 7.12685 9.85272 7.56868C9.85272 8.0105 10.2109 8.36868 10.6527 8.36868Z" fill="#FFD983"/>
<path d="M18.6661 11.5167C19.3104 11.5167 19.8327 10.9943 19.8327 10.35C19.8327 9.70568 19.3104 9.18335 18.6661 9.18335C18.0217 9.18335 17.4994 9.70568 17.4994 10.35C17.4994 10.9943 18.0217 11.5167 18.6661 11.5167Z" fill="#E5A157"/>
<path d="M14.7913 14.1307C15.1227 14.1307 15.3913 13.862 15.3913 13.5307C15.3913 13.1993 15.1227 12.9307 14.7913 12.9307C14.46 12.9307 14.1913 13.1993 14.1913 13.5307C14.1913 13.862 14.46 14.1307 14.7913 14.1307Z" fill="#E5A157"/>
<path d="M6.98336 18.616C7.4436 18.616 7.81669 18.2429 7.81669 17.7827C7.81669 17.3224 7.4436 16.9493 6.98336 16.9493C6.52312 16.9493 6.15002 17.3224 6.15002 17.7827C6.15002 18.2429 6.52312 18.616 6.98336 18.616Z" fill="#E5A157"/>
<path d="M18.45 16.2433C19.0023 16.2433 19.45 15.7956 19.45 15.2433C19.45 14.6911 19.0023 14.2433 18.45 14.2433C17.8977 14.2433 17.45 14.6911 17.45 15.2433C17.45 15.7956 17.8977 16.2433 18.45 16.2433Z" fill="#E5A157"/>
<path d="M17.252 5.52665C17.7123 5.52665 18.0854 5.15356 18.0854 4.69332C18.0854 4.23308 17.7123 3.85999 17.252 3.85999C16.7918 3.85999 16.4187 4.23308 16.4187 4.69332C16.4187 5.15356 16.7918 5.52665 17.252 5.52665Z" fill="#E5A157"/>
<path d="M9.70933 13.138C10.0775 13.138 10.376 12.8395 10.376 12.4714C10.376 12.1032 10.0775 11.8047 9.70933 11.8047C9.34114 11.8047 9.04266 12.1032 9.04266 12.4714C9.04266 12.8395 9.34114 13.138 9.70933 13.138Z" fill="#E5A157"/>
<path d="M11.766 3.59468C12.0606 3.59468 12.2993 3.3559 12.2993 3.06135C12.2993 2.7668 12.0606 2.52802 11.766 2.52802C11.4714 2.52802 11.2327 2.7668 11.2327 3.06135C11.2327 3.3559 11.4714 3.59468 11.766 3.59468Z" fill="#E5A157"/>
<path d="M3.19198 13.086C3.37607 13.086 3.52531 12.9367 3.52531 12.7526C3.52531 12.5685 3.37607 12.4193 3.19198 12.4193C3.00788 12.4193 2.85864 12.5685 2.85864 12.7526C2.85864 12.9367 3.00788 13.086 3.19198 13.086Z" fill="#C1694F"/>
<path d="M15.336 6.08C15.5201 6.08 15.6693 5.93076 15.6693 5.74666C15.6693 5.56257 15.5201 5.41333 15.336 5.41333C15.1519 5.41333 15.0026 5.56257 15.0026 5.74666C15.0026 5.93076 15.1519 6.08 15.336 6.08Z" fill="#C1694F"/>
<path d="M9.27266 16.152C9.45676 16.152 9.606 16.0028 9.606 15.8187C9.606 15.6346 9.45676 15.4854 9.27266 15.4854C9.08857 15.4854 8.93933 15.6346 8.93933 15.8187C8.93933 16.0028 9.08857 16.152 9.27266 16.152Z" fill="#C1694F"/>
<path d="M18.666 9.0333C18.8501 9.0333 18.9993 8.88407 18.9993 8.69997C18.9993 8.51588 18.8501 8.36664 18.666 8.36664C18.4819 8.36664 18.3326 8.51588 18.3326 8.69997C18.3326 8.88407 18.4819 9.0333 18.666 9.0333Z" fill="#C1694F"/>
<path d="M11.5953 20.8186C11.7794 20.8186 11.9286 20.6694 11.9286 20.4853C11.9286 20.3012 11.7794 20.152 11.5953 20.152C11.4112 20.152 11.262 20.3012 11.262 20.4853C11.262 20.6694 11.4112 20.8186 11.5953 20.8186Z" fill="#C1694F"/>
<path d="M11.288 5.03734C11.4551 5.03734 11.5906 4.90183 11.5906 4.73467C11.5906 4.56752 11.4551 4.43201 11.288 4.43201C11.1208 4.43201 10.9853 4.56752 10.9853 4.73467C10.9853 4.90183 11.1208 5.03734 11.288 5.03734Z" fill="#EDB97F"/>
<path d="M7.00665 13.016C7.1738 13.016 7.30931 12.8805 7.30931 12.7133C7.30931 12.5462 7.1738 12.4106 7.00665 12.4106C6.83949 12.4106 6.70398 12.5462 6.70398 12.7133C6.70398 12.8805 6.83949 13.016 7.00665 13.016Z" fill="#EDB97F"/>
<path d="M12.2613 11.7873C12.459 11.7873 12.6193 11.6271 12.6193 11.4293C12.6193 11.2316 12.459 11.0714 12.2613 11.0714C12.0636 11.0714 11.9033 11.2316 11.9033 11.4293C11.9033 11.6271 12.0636 11.7873 12.2613 11.7873Z" fill="#EDB97F"/>
<path d="M16.582 11.1573C16.8404 11.1573 17.05 10.9478 17.05 10.6893C17.05 10.4308 16.8404 10.2213 16.582 10.2213C16.3235 10.2213 16.114 10.4308 16.114 10.6893C16.114 10.9478 16.3235 11.1573 16.582 11.1573Z" fill="#EDB97F"/>
<path d="M12.3 16.6407C12.5128 16.6407 12.6853 16.4681 12.6853 16.2553C12.6853 16.0425 12.5128 15.87 12.3 15.87C12.0872 15.87 11.9147 16.0425 11.9147 16.2553C11.9147 16.4681 12.0872 16.6407 12.3 16.6407Z" fill="#EDB97F"/>
<path d="M13.1566 18.264C13.3845 18.264 13.5693 18.0792 13.5693 17.8513C13.5693 17.6234 13.3845 17.4387 13.1566 17.4387C12.9287 17.4387 12.744 17.6234 12.744 17.8513C12.744 18.0792 12.9287 18.264 13.1566 18.264Z" fill="#EDB97F"/>
<path d="M19.3453 13.0987C19.5581 13.0987 19.7306 12.9261 19.7306 12.7133C19.7306 12.5005 19.5581 12.328 19.3453 12.328C19.1325 12.328 18.96 12.5005 18.96 12.7133C18.96 12.9261 19.1325 13.0987 19.3453 13.0987Z" fill="#EDB97F"/>
<path d="M2.31732 10.6927C3.77932 9.04802 5.27732 7.44069 6.78066 5.83869C7.53466 5.04002 8.22866 4.18002 9.06466 3.46535C9.89599 2.74602 10.756 2.05535 11.7333 1.48535L11.8033 1.55668C11.2113 2.52068 10.502 3.36535 9.76399 4.18069C9.03066 5.00069 8.15532 5.67468 7.33999 6.41135C5.70466 7.87869 4.06399 9.34002 2.38732 10.7654L2.31732 10.6927ZM12.1607 20.6947C13.7367 19.338 15.2753 17.9447 16.8093 16.5467C17.5733 15.8447 18.3987 15.204 19.0807 14.4194C19.7667 13.6394 20.4247 12.8307 20.9633 11.9027L20.8927 11.832C19.9647 12.37 19.1547 13.026 18.374 13.7114C17.5887 14.392 16.9467 15.2167 16.244 15.98C14.8433 17.512 13.4487 19.0494 12.09 20.6234L12.1607 20.6947ZM4.34132 18.2427C5.57866 17.2007 6.78399 16.1274 8.00666 15.0707L11.6133 11.8394C12.808 10.7547 14.104 9.77202 15.1613 8.54935C16.226 7.33335 17.244 6.07135 18.0633 4.60869L17.9467 4.49069C16.4793 5.30069 15.21 6.31068 13.9873 7.36735C12.7573 8.41669 11.7667 9.70669 10.674 10.894L7.41999 14.48C6.35532 15.696 5.27399 16.894 4.22399 18.1247L4.34132 18.2427ZM3.11199 14.8154C4.40599 14.0494 5.54066 13.1227 6.63866 12.1594C7.74199 11.2014 8.65466 10.0514 9.64866 8.98335L12.612 5.76002C13.5833 4.66935 14.5687 3.59202 15.528 2.48935L15.434 2.39468C14.324 3.34602 13.24 4.32335 12.142 5.28735L8.89732 8.22735C7.82199 9.21335 6.66532 10.118 5.69932 11.2147C4.72799 12.3054 3.79332 13.434 3.01799 14.722L3.11199 14.8154ZM7.74532 20.0427C9.03932 19.2767 10.174 18.35 11.272 17.3867C12.3753 16.4287 13.288 15.2787 14.282 14.2107L17.2453 10.9874C18.2167 9.89669 19.202 8.81935 20.1613 7.71669L20.0673 7.62202C18.9573 8.57335 17.8733 9.55069 16.7753 10.5147L13.5307 13.4547C12.4553 14.4407 11.2987 15.3454 10.3327 16.442C9.36132 17.5327 8.42666 18.6614 7.65132 19.9494L7.74532 20.0427Z" fill="#964F45"/>
</g>
<defs>
<clipPath id="clip0_5_2">
<rect width="24" height="24" fill="white"/>
</clipPath>
</defs>
</svg>
