<svg width="20" height="20" viewBox="0 0 20 20" fill="none" xmlns="http://www.w3.org/2000/svg">
<path opacity="0.2" d="M5 8.75C5 9.98613 5.36656 11.1945 6.05332 12.2223C6.74007 13.2501 7.71619 14.0512 8.85823 14.5242C10.0003 14.9973 11.2569 15.1211 12.4693 14.8799C13.6817 14.6388 14.7953 14.0435 15.6694 13.1694C16.5435 12.2953 17.1388 11.1817 17.3799 9.96931C17.6211 8.75693 17.4973 7.50027 17.0242 6.35823C16.5512 5.21619 15.7501 4.24007 14.7223 3.55331C13.6945 2.86656 12.4861 2.5 11.25 2.5C10.4292 2.5 9.61651 2.66166 8.85823 2.97575C8.09994 3.28984 7.41095 3.75022 6.83058 4.33058C6.25022 4.91095 5.78984 5.59994 5.47575 6.35823C5.16166 7.11651 5 7.92924 5 8.75Z" fill="#9FB1C7"/>
<path d="M2.05781 17.0578L5.96875 13.1469C4.83298 11.7847 4.2661 10.0371 4.38604 8.2676C4.50598 6.49811 5.3035 4.84298 6.61271 3.64654C7.92191 2.4501 9.64198 1.80446 11.4151 1.84395C13.1882 1.88343 14.8778 2.605 16.1325 3.85853C17.3871 5.11207 18.1102 6.80106 18.1512 8.57413C18.1923 10.3472 17.5482 12.0679 16.3529 13.3781C15.1576 14.6884 13.5032 15.4874 11.7338 15.6089C9.96441 15.7304 8.2163 15.165 6.85312 14.0305L2.94219 17.9422C2.88412 18.0002 2.81518 18.0463 2.73931 18.0777C2.66344 18.1092 2.58212 18.1253 2.5 18.1253C2.41788 18.1253 2.33656 18.1092 2.26069 18.0777C2.18482 18.0463 2.11588 18.0002 2.05781 17.9422C1.99974 17.8841 1.95368 17.8152 1.92225 17.7393C1.89083 17.6634 1.87465 17.5821 1.87465 17.5C1.87465 17.4179 1.89083 17.3366 1.92225 17.2607C1.95368 17.1848 1.99974 17.1159 2.05781 17.0578ZM16.875 8.74999C16.875 7.63747 16.5451 6.54994 15.927 5.62491C15.3089 4.69988 14.4304 3.97891 13.4026 3.55317C12.3748 3.12743 11.2438 3.01603 10.1526 3.23308C9.06147 3.45012 8.05919 3.98585 7.27252 4.77252C6.48585 5.55919 5.95012 6.56147 5.73308 7.65261C5.51604 8.74375 5.62743 9.87475 6.05318 10.9026C6.47892 11.9304 7.19989 12.8089 8.12492 13.427C9.04994 14.0451 10.1375 14.375 11.25 14.375C12.7413 14.3733 14.1711 13.7802 15.2256 12.7256C16.2802 11.6711 16.8733 10.2413 16.875 8.74999Z" fill="#9FB1C7"/>
</svg>
