<svg width="25" height="24" viewBox="0 0 25 24" fill="none" xmlns="http://www.w3.org/2000/svg">
<g clip-path="url(#clip0_2_82)">
<path d="M11.9355 0.0285023C11.8448 0.0380648 11.5615 0.0716273 11.3115 0.101065C10.3039 0.216002 9.16128 0.518627 8.15853 0.941065C4.52947 2.45738 1.79816 5.78419 1.0446 9.6C0.867222 10.5075 0.824097 10.9534 0.824097 12C0.824097 13.3491 0.958159 14.28 1.31347 15.4564C2.47503 19.3058 5.49903 22.3249 9.35835 23.4909C10.5199 23.8418 11.4559 23.9758 12.7999 23.9758C14.149 23.9758 15.0799 23.8418 16.2563 23.4864C20.1057 22.3249 23.1248 19.3009 24.2908 15.4416C24.6417 14.28 24.7757 13.344 24.7757 12C24.7757 11.4287 24.7472 10.7762 24.7135 10.5358C24.3246 7.76156 23.182 5.42869 21.277 3.52294C19.3755 1.63181 17.0524 0.484877 14.3355 0.0960023C13.9613 0.0431273 12.2284 -0.00524773 11.9355 0.0285023ZM8.02372 7.5885C8.27872 7.66538 8.39797 7.73738 8.57085 7.91006C8.90703 8.25131 8.98391 8.43825 8.98391 8.95163C8.98391 9.33619 8.96928 9.408 8.85435 9.60938C8.6331 9.98363 8.11972 10.3294 7.7646 10.3388C7.51466 10.344 7.52497 10.2334 7.79835 9.94556C8.16303 9.56625 8.21572 9.42244 8.21572 8.85563C8.21122 8.30869 8.14391 8.12175 7.88966 7.968C7.67816 7.83844 7.4481 7.848 7.11191 8.00606C6.23816 8.42419 5.2926 9.816 4.92341 11.2419C4.43347 13.1426 5.30216 14.6638 6.7326 14.4045C7.14997 14.3276 7.93728 13.9249 8.27872 13.6076C8.56147 13.3491 8.56147 13.344 8.58997 13.0226C8.65297 12.3501 9.12753 11.6784 9.76185 11.3664C10.054 11.2221 10.1265 11.2082 10.5199 11.2082C10.8942 11.2082 10.9806 11.2273 11.163 11.3276C11.7437 11.6595 11.6237 12.432 10.9952 12.432C10.6305 12.432 10.443 12.2445 10.7074 12.1444C10.9667 12.0484 10.87 11.688 10.5683 11.6066C10.213 11.5151 9.80947 11.7553 9.55522 12.216C9.24772 12.7729 9.23366 13.4355 9.52597 13.7374C9.80947 14.0398 10.1646 13.8004 10.4385 13.1132C10.5822 12.7631 10.7886 12.5756 11.029 12.5756C11.2399 12.5756 11.2787 12.7054 11.187 13.0993C11.0524 13.7087 11.1439 13.8669 11.5232 13.6802C11.6477 13.6223 11.8543 13.4884 11.9788 13.3924L12.214 13.2049L12.373 12.3743C12.5458 11.4433 12.6124 11.3181 12.9677 11.2515C13.309 11.1885 13.3858 11.3569 13.2606 11.8894L13.1931 12.1875L13.443 11.9325C14.0333 11.3276 14.7583 11.0303 15.0081 11.28C15.1422 11.4141 15.1275 11.5824 14.9357 12.1772C14.8448 12.4607 14.7195 12.9075 14.6625 13.1616C14.5761 13.5454 14.5708 13.6369 14.6194 13.6993C14.7732 13.8816 15.2432 13.6941 15.6608 13.2861L15.9055 13.0466L15.9347 12.5134C15.9632 11.8989 16.0204 11.6784 16.1837 11.4814C16.3375 11.2991 16.6159 11.1651 16.7646 11.2031C16.9133 11.2419 16.9133 11.3856 16.7792 11.8082C16.5917 12.3889 16.6114 13.7278 16.8034 13.7278C16.8803 13.7278 17.2735 13.3153 17.5234 12.9698L17.7102 12.7148L17.5615 12.5618C17.3022 12.288 17.2399 12.1106 17.2399 11.6638C17.2399 11.3379 17.2641 11.2178 17.3453 11.0588C17.4801 10.8098 17.691 10.6275 17.9408 10.5549C18.2044 10.4736 18.531 10.6076 18.6651 10.8478C18.7999 11.0925 18.7663 11.6396 18.5933 12.0146L18.4688 12.2878H18.6366C18.8672 12.2878 18.9582 12.2306 19.3712 11.8418C19.5872 11.6353 19.837 11.4574 20.0237 11.3709C20.7583 11.0259 21.6227 11.2031 21.7662 11.7311C21.8862 12.1538 21.6227 12.4511 21.1613 12.4174C20.8302 12.3934 20.7679 12.3068 20.9599 12.1444C21.3055 11.8556 20.9599 11.4866 20.4655 11.6207C20.1966 11.6931 19.8942 11.9949 19.7361 12.3458C19.4188 13.0466 19.5872 13.872 20.0428 13.872C20.2253 13.872 20.5474 13.5118 20.6719 13.1616C20.8206 12.7581 21.1326 12.504 21.3677 12.5953C21.4975 12.6431 21.507 12.7727 21.4257 13.1807C21.3342 13.6275 21.3201 14.0451 21.3919 14.2369C21.4206 14.3085 21.507 14.4433 21.589 14.5343C21.742 14.7069 21.7472 14.7694 21.6175 14.8513C21.5552 14.8944 21.4731 14.8755 21.2719 14.7651C20.9935 14.6207 20.7533 14.3614 20.6668 14.1167L20.6142 13.9731L20.4222 14.1167C20.3115 14.1936 20.1388 14.28 20.0383 14.3085C19.6399 14.4141 19.15 14.1409 18.9201 13.6802C18.8284 13.5021 18.7999 12.9793 18.8672 12.7778C18.9055 12.6671 18.9055 12.6671 18.7515 12.744C18.6703 12.7873 18.4975 12.8349 18.3634 12.8496C18.1422 12.8739 18.1084 12.8979 17.8881 13.1762C17.5761 13.5643 17.0237 14.0882 16.7982 14.1988C16.3185 14.4383 16.1603 14.3709 16.035 13.8763L15.9486 13.5454L15.742 13.7278C15.4783 13.9584 14.9503 14.2369 14.6477 14.3042C14.3599 14.3664 14.0524 14.2749 13.9277 14.0829C13.7412 13.7951 13.8034 13.1858 14.1006 12.3647C14.3211 11.7553 14.163 11.7459 13.6063 12.3266C13.1933 12.7631 13.0159 13.0751 12.901 13.56C12.781 14.064 12.6366 14.2463 12.3107 14.3231C12.1137 14.3664 12.022 14.2463 12.061 13.9826L12.0895 13.7709L11.907 13.8962C11.6477 14.0736 11.3211 14.2369 11.0955 14.2991C10.87 14.3614 10.5726 14.2946 10.5008 14.1694C10.3712 13.9491 10.3712 13.9491 10.1698 14.1071C9.7326 14.4624 9.1086 14.3614 8.7921 13.8911L8.69085 13.7424L8.37453 14.0353C7.46197 14.8704 6.3201 15.2447 5.47503 14.9854C4.39972 14.6595 3.80497 13.7374 3.81453 12.408C3.81903 11.0736 4.40928 9.66731 5.40322 8.62575C5.96497 8.03981 6.49297 7.69406 7.03072 7.5645C7.41885 7.4685 7.65472 7.47338 8.02372 7.5885Z" fill="#00C4CC"/>
<path d="M17.7533 11.0018C17.6477 11.1071 17.6865 11.5298 17.8208 11.7986C17.8881 11.9378 17.9599 12.0484 17.9839 12.0484C18.003 12.0484 18.0462 11.9378 18.0799 11.8029C18.1999 11.3042 17.9839 10.7709 17.7533 11.0018Z" fill="#00C4CC"/>
</g>
<defs>
<clipPath id="clip0_2_82">
<rect width="24" height="24" fill="white" transform="translate(0.799927)"/>
</clipPath>
</defs>
</svg>
