<svg width="25" height="24" viewBox="0 0 25 24" fill="none" xmlns="http://www.w3.org/2000/svg">
<g clip-path="url(#clip0_2_6)">
<path d="M22.2898 12.9915L19.3664 11.3152L18.8623 11.0972L6.90332 11.1789V17.2504H22.2898V12.9915Z" fill="white"/>
<path d="M16.9678 16.6916C17.1109 16.2009 17.0563 15.7513 16.8178 15.4174C16.5997 15.1108 16.2319 14.9336 15.7888 14.9132L7.4006 14.8042C7.34604 14.8042 7.29841 14.777 7.27104 14.7362C7.24366 14.6953 7.23691 14.6407 7.2506 14.5862C7.27779 14.5044 7.35954 14.4431 7.44823 14.4362L15.9114 14.3272C16.913 14.2796 18.0034 13.4687 18.3849 12.4738L18.8687 11.2132C18.8891 11.1587 18.8959 11.1043 18.8824 11.0497C18.3375 8.58261 16.1366 6.74286 13.5064 6.74286C11.0805 6.74286 9.02266 8.31017 8.28673 10.4839C7.78778 10.1123 7.16834 9.93984 6.54916 10.0001C5.38385 10.116 4.45048 11.0495 4.3346 12.2147C4.30741 12.5145 4.32785 12.8075 4.39591 13.08C2.49448 13.1345 0.974976 14.6882 0.974976 16.6029C0.974976 16.7734 0.988663 16.9436 1.0091 17.114C1.01497 17.1534 1.03463 17.1894 1.06458 17.2156C1.09452 17.2418 1.13281 17.2565 1.1726 17.2571H16.6545C16.743 17.2571 16.8249 17.1958 16.8521 17.1071L16.9678 16.6916Z" fill="#F38020"/>
<path d="M19.6391 11.3016C19.5641 11.3016 19.4823 11.3016 19.4073 11.3083C19.3528 11.3083 19.3052 11.3492 19.2847 11.4038L18.9577 12.5417C18.8147 13.0324 18.8692 13.482 19.1077 13.8159C19.3258 14.1225 19.6937 14.2997 20.1367 14.3201L21.9221 14.4291C21.9767 14.4291 22.0243 14.4563 22.0517 14.4971C22.079 14.538 22.0858 14.5993 22.0721 14.6471C22.0449 14.7289 21.9632 14.7902 21.8745 14.7971L20.0137 14.9063C19.0052 14.9539 17.9218 15.7648 17.5402 16.7597L17.4039 17.1071C17.3767 17.1752 17.4243 17.2434 17.4993 17.2434H23.891C23.966 17.2434 24.0341 17.1958 24.0545 17.1208C24.1635 16.7256 24.225 16.3099 24.225 15.8807C24.225 13.3594 22.1672 11.3016 19.6391 11.3016Z" fill="#FAAE40"/>
</g>
<defs>
<clipPath id="clip0_2_6">
<rect width="24" height="24" fill="white" transform="translate(0.599976)"/>
</clipPath>
</defs>
</svg>
