<svg width="22" height="24" viewBox="0 0 22 24" fill="none" xmlns="http://www.w3.org/2000/svg">
<path d="M21.7983 17.7485V12.3674C21.7983 12.1624 21.5757 12.0343 21.3996 12.1368L11.036 18.1216C10.9543 18.1696 10.9031 18.2576 10.9031 18.3521V23.7333C10.9031 23.9382 11.1256 24.0663 11.3017 23.9638L21.6654 17.9791C21.747 17.931 21.7983 17.843 21.7983 17.7485Z" fill="white"/>
<path d="M21.3981 2.93996L0.132888 15.2169C0.0512339 15.2649 0 15.353 0 15.4474V20.8254C0 21.0303 0.222547 21.1584 0.398663 21.0559L21.6639 8.77902C21.7456 8.73099 21.7968 8.64293 21.7968 8.54847V3.17052C21.7968 2.96558 21.5743 2.8375 21.3981 2.93996Z" fill="white"/>
<path d="M10.9016 5.64617V0.266616C10.9016 0.0616807 10.6791 -0.066404 10.5029 0.0360637L0.132888 6.01922C0.0512338 6.06725 0 6.15531 0 6.24977V11.6309C0 11.8359 0.222547 11.9639 0.398663 11.8615L10.7687 5.87672C10.8504 5.82869 10.9016 5.74063 10.9016 5.64617Z" fill="white"/>
</svg>
