<svg width="25" height="24" viewBox="0 0 25 24" fill="none" xmlns="http://www.w3.org/2000/svg">
<g clip-path="url(#clip0_2_4)">
<path d="M12.6266 19.305H7.95748V14.7229H12.6268L12.6266 19.305ZM7.95748 22.8996H4.41991V19.3046H7.95748V22.8996ZM4.4201 19.3046H1.44935V16.3438H4.41991L4.4201 19.3046ZM12.5565 23.9573V19.3046C17.5084 19.3046 21.3285 14.4409 19.4184 9.29438C18.7106 7.39126 17.2258 5.84063 15.2447 5.13545C10.1509 3.3032 5.26966 7.10926 5.26966 11.9732H0.599976C0.599976 4.21932 8.16935 -1.9138 16.4475 0.623821C20.0553 1.75201 22.8851 4.57163 24.0168 8.16695C26.5633 16.4141 20.4084 23.9571 12.5563 23.9571L12.5565 23.9573Z" fill="#0080FF"/>
</g>
<defs>
<clipPath id="clip0_2_4">
<rect width="24" height="24" fill="white" transform="translate(0.599976)"/>
</clipPath>
</defs>
</svg>
