<svg width="17" height="24" viewBox="0 0 17 24" fill="none" xmlns="http://www.w3.org/2000/svg">
<g clip-path="url(#clip0_1_226)">
<path d="M4.04 24C6.248 24 8.04 22.208 8.04 20V16H4.04C1.832 16 0.0400009 17.792 0.0400009 20C0.0400009 22.208 1.832 24 4.04 24Z" fill="#0ACF83"/>
<path d="M0.0400009 12C0.0400009 9.792 1.832 8 4.04 8H8.04V16H4.04C1.832 16 0.0400009 14.208 0.0400009 12Z" fill="#A259FF"/>
<path d="M0.0400009 4C0.0400009 1.792 1.832 0 4.04 0H8.04V8H4.04C1.832 8 0.0400009 6.208 0.0400009 4Z" fill="#F24E1E"/>
<path d="M8.04 0H12.04C14.248 0 16.04 1.792 16.04 4C16.04 6.208 14.248 8 12.04 8H8.04V0Z" fill="#FF7262"/>
<path d="M16.04 12C16.04 14.208 14.248 16 12.04 16C9.832 16 8.04 14.208 8.04 12C8.04 9.792 9.832 8 12.04 8C14.248 8 16.04 9.792 16.04 12Z" fill="#1ABCFE"/>
</g>
<defs>
<clipPath id="clip0_1_226">
<rect width="16.08" height="24" fill="white"/>
</clipPath>
</defs>
</svg>
