<svg width="17" height="24" viewBox="0 0 17 24" fill="none" xmlns="http://www.w3.org/2000/svg">
<g clip-path="url(#clip0_2_146)">
<path d="M4.64532 17.7786C5.33944 18.6632 5.97118 19.595 6.53596 20.5672C7.01819 21.4816 7.21921 22.1016 7.57162 23.2033C7.78776 23.812 7.98309 23.9937 8.40306 23.9937C8.86069 23.9937 9.06832 23.6846 9.22874 23.2066C9.56186 22.1662 9.82324 21.3722 10.2356 20.6219C11.0448 19.1734 12.0503 17.8862 13.0383 16.6491C13.3058 16.299 15.0351 14.2593 15.8136 12.6498C15.8136 12.6498 16.7705 10.8819 16.7705 8.41276C16.7705 6.10313 15.8268 4.50128 15.8268 4.50128L13.11 5.22887L11.4601 9.57444L11.0519 10.1737L10.9703 10.2822L10.8617 10.4181L10.6712 10.6351L10.3988 10.9074L8.92962 12.1044L5.25638 14.2253L4.64532 17.7786Z" fill="#34A853"/>
<path d="M0.854187 12.3526C1.75069 14.4003 3.47947 16.2004 4.64913 17.7801L10.8617 10.4209C10.8617 10.4209 9.98648 11.5656 8.39882 11.5656C6.63034 11.5656 5.20165 10.1534 5.20165 8.37266C5.20165 7.15154 5.9363 6.31265 5.9363 6.31265L1.71904 7.44268L0.854187 12.3526Z" fill="#FBBC04"/>
<path d="M10.9311 0.378448C12.9945 1.04371 14.7605 2.44036 15.8288 4.49984L10.8636 10.4167C10.8636 10.4167 11.5983 9.5626 11.5983 8.34906C11.5983 6.5269 10.0639 5.16563 8.40634 5.16563C6.83889 5.16563 5.93866 6.30841 5.93866 6.30841V2.58089L10.9311 0.378448Z" fill="#4285F4"/>
<path d="M1.99225 2.99281C3.22462 1.51834 5.39312 0 8.38272 0C9.83319 0 10.9259 0.380796 10.9259 0.380796L5.93394 6.31167H2.39704L1.99225 2.99281Z" fill="#1A73E8"/>
<path d="M0.854182 12.3526C0.854182 12.3526 0.0294189 10.7375 0.0294189 8.39764C0.0294189 6.18617 0.889103 4.25309 1.99225 2.9928L5.93675 6.31219L0.854182 12.3526Z" fill="#EA4335"/>
</g>
<defs>
<clipPath id="clip0_2_146">
<rect width="16.8" height="24" fill="white"/>
</clipPath>
</defs>
</svg>
