<svg width="24" height="24" viewBox="0 0 24 24" fill="none" xmlns="http://www.w3.org/2000/svg">
<g clip-path="url(#clip0_1_430)">
<path d="M7.79158 18.6281C7.79158 18.7219 7.68376 18.7969 7.54783 18.7969C7.39314 18.8109 7.28533 18.7359 7.28533 18.6281C7.28533 18.5344 7.39314 18.4594 7.52908 18.4594C7.6697 18.4453 7.79158 18.5203 7.79158 18.6281ZM6.33377 18.4172C6.30095 18.5109 6.3947 18.6187 6.53533 18.6469C6.6572 18.6937 6.79783 18.6469 6.82595 18.5531C6.85408 18.4594 6.76501 18.3516 6.62439 18.3094C6.50251 18.2766 6.36658 18.3234 6.33377 18.4172ZM8.40564 18.3375C8.2697 18.3703 8.17595 18.4594 8.19001 18.5672C8.20408 18.6609 8.32595 18.7219 8.46658 18.6891C8.60252 18.6562 8.69626 18.5672 8.6822 18.4734C8.66814 18.3844 8.54158 18.3234 8.40564 18.3375ZM11.49 0.375C4.98845 0.375 0.0150146 5.31094 0.0150146 11.8125C0.0150146 17.0109 3.28689 21.4594 7.96033 23.025C8.56033 23.1328 8.77127 22.7625 8.77127 22.4578C8.77127 22.1672 8.7572 20.5641 8.7572 19.5797C8.7572 19.5797 5.47595 20.2828 4.78689 18.1828C4.78689 18.1828 4.25251 16.8187 3.48376 16.4672C3.48376 16.4672 2.41033 15.7312 3.55876 15.7453C3.55876 15.7453 4.72595 15.8391 5.36814 16.9547C6.3947 18.7641 8.11502 18.2437 8.78533 17.9344C8.89314 17.1844 9.19783 16.6641 9.53533 16.3547C6.91501 16.0641 4.27127 15.6844 4.27127 11.175C4.27127 9.88594 4.62751 9.23906 5.37751 8.41406C5.25564 8.10938 4.8572 6.85312 5.49939 5.23125C6.47908 4.92656 8.73376 6.49688 8.73376 6.49688C9.67126 6.23438 10.6791 6.09844 11.6775 6.09844C12.676 6.09844 13.6838 6.23438 14.6213 6.49688C14.6213 6.49688 16.876 4.92188 17.8556 5.23125C18.4978 6.85781 18.0994 8.10938 17.9775 8.41406C18.7275 9.24375 19.1869 9.89062 19.1869 11.175C19.1869 15.6984 16.426 16.0594 13.8056 16.3547C14.2369 16.725 14.6025 17.4281 14.6025 18.5297C14.6025 20.1094 14.5885 22.0641 14.5885 22.4484C14.5885 22.7531 14.8041 23.1234 15.3994 23.0156C20.0869 21.4594 23.265 17.0109 23.265 11.8125C23.265 5.31094 17.9916 0.375 11.49 0.375ZM4.57126 16.5422C4.51033 16.5891 4.52439 16.6969 4.60408 16.7859C4.67908 16.8609 4.78689 16.8938 4.84783 16.8328C4.90876 16.7859 4.8947 16.6781 4.81501 16.5891C4.74001 16.5141 4.6322 16.4812 4.57126 16.5422ZM4.06501 16.1625C4.0322 16.2234 4.07908 16.2984 4.17283 16.3453C4.24783 16.3922 4.34158 16.3781 4.37439 16.3125C4.4072 16.2516 4.36033 16.1766 4.26658 16.1297C4.17283 16.1016 4.09783 16.1156 4.06501 16.1625ZM5.58377 17.8312C5.50876 17.8922 5.53689 18.0328 5.6447 18.1219C5.75251 18.2297 5.88845 18.2437 5.94939 18.1688C6.01033 18.1078 5.9822 17.9672 5.88845 17.8781C5.78533 17.7703 5.6447 17.7563 5.58377 17.8312ZM5.04939 17.1422C4.97439 17.1891 4.97439 17.3109 5.04939 17.4188C5.12439 17.5266 5.25095 17.5734 5.31189 17.5266C5.38689 17.4656 5.38689 17.3438 5.31189 17.2359C5.24626 17.1281 5.12439 17.0813 5.04939 17.1422Z" fill="white"/>
</g>
<defs>
<clipPath id="clip0_1_430">
<rect width="23.28" height="24" fill="white"/>
</clipPath>
</defs>
</svg>
