<svg width="24" height="19" viewBox="0 0 24 19" fill="none" xmlns="http://www.w3.org/2000/svg">
<path d="M5.47216 17.9563V8.70842L2.60411 6.08458L0.0322571 4.62854V16.3243C0.0322571 17.2273 0.763879 17.9563 1.66426 17.9563H5.47216Z" fill="#4285F4"/>
<path d="M18.5278 17.9563H22.3357C23.2388 17.9563 23.9677 17.2246 23.9677 16.3243V4.62863L21.0547 6.29636L18.5278 8.70842V17.9563Z" fill="#34A853"/>
<path d="M5.47217 8.70841L5.08191 5.09499L5.47217 1.6366L12 6.53253L18.5279 1.6366L18.9644 4.90828L18.5279 8.70841L12 13.6043L5.47217 8.70841Z" fill="#EA4335"/>
<path d="M18.5278 1.63659V8.7084L23.9677 4.62853V2.45255C23.9677 0.434393 21.6639 -0.7161 20.0511 0.494232L18.5278 1.63659Z" fill="#FBBC04"/>
<path d="M0.0322571 4.62854L2.53417 6.50504L5.47216 8.70842V1.6366L3.94889 0.494244C2.33324 -0.716181 0.0322571 0.434406 0.0322571 2.45247V4.62854Z" fill="#C5221F"/>
</svg>
