<svg width="24" height="24" viewBox="0 0 24 24" fill="none" xmlns="http://www.w3.org/2000/svg">
<g clip-path="url(#clip0_2_120)">
<path d="M7.49201 10.835L9.86601 4.32399C10.1463 3.564 10.123 2.72526 9.801 1.98199C9.031 0.182989 6.94301 -0.398011 5.29301 0.264989C3.64301 0.928989 2.71001 2.43499 3.51201 4.30499L6.332 10.866C6.551 11.376 7.30201 11.356 7.49201 10.836M9.17201 11.933L15.705 9.15699C17.875 8.23499 18.427 5.46699 16.727 3.86699L16.659 3.80399C14.992 2.25699 12.237 2.80199 11.289 4.83999L8.35701 11.135C8.12301 11.638 8.65201 12.155 9.17301 11.933M9.54501 12.803L16.191 10.291C18.399 9.45599 20.811 11.036 20.78 13.331L20.777 13.421C20.729 15.657 18.384 17.158 16.224 16.368L9.55201 13.926C9.43541 13.8858 9.33418 13.8104 9.26231 13.7102C9.19044 13.61 9.15148 13.4899 9.15082 13.3666C9.15016 13.2433 9.18784 13.1228 9.25863 13.0219C9.32943 12.9209 9.42885 12.8444 9.54501 12.803ZM9.16001 14.73L15.597 17.706C16.3445 18.0457 16.9385 18.6518 17.263 19.406C18.032 21.206 16.98 23.045 15.33 23.706C13.68 24.369 11.92 23.942 11.12 22.071L8.31801 15.501C8.10101 14.993 8.64601 14.493 9.16001 14.73Z" fill="white"/>
</g>
<defs>
<clipPath id="clip0_2_120">
<rect width="24" height="24" fill="white"/>
</clipPath>
</defs>
</svg>
