<svg width="25" height="24" viewBox="0 0 25 24" fill="none" xmlns="http://www.w3.org/2000/svg">
<g clip-path="url(#clip0_1_434)">
<path d="M18.975 0H6.22501C3.1184 0 0.600006 2.5184 0.600006 5.625V18.375C0.600006 21.4816 3.1184 24 6.22501 24H18.975C22.0816 24 24.6 21.4816 24.6 18.375V5.625C24.6 2.5184 22.0816 0 18.975 0Z" fill="white"/>
<path d="M18.975 0H6.22501C3.1184 0 0.600006 2.5184 0.600006 5.625V18.375C0.600006 21.4816 3.1184 24 6.22501 24H18.975C22.0816 24 24.6 21.4816 24.6 18.375V5.625C24.6 2.5184 22.0816 0 18.975 0Z" fill="#0A66C2"/>
<path d="M17.917 20.408H20.6611C20.7605 20.408 20.8559 20.3685 20.9262 20.2982C20.9966 20.2279 21.0361 20.1325 21.0361 20.0331L21.0375 14.2354C21.0375 11.2051 20.3845 8.87588 16.8433 8.87588C15.4972 8.82581 14.2277 9.51975 13.5427 10.6785C13.5393 10.6841 13.5342 10.6885 13.5281 10.691C13.5221 10.6934 13.5154 10.6938 13.509 10.6921C13.5027 10.6904 13.4971 10.6867 13.4931 10.6815C13.4891 10.6763 13.4869 10.67 13.4869 10.6634V9.53063C13.4869 9.43117 13.4474 9.33579 13.377 9.26546C13.3067 9.19513 13.2113 9.15563 13.1119 9.15563H10.5078C10.4083 9.15563 10.3129 9.19513 10.2426 9.26546C10.1723 9.33579 10.1328 9.43117 10.1328 9.53063V20.0325C10.1328 20.132 10.1723 20.2273 10.2426 20.2977C10.3129 20.368 10.4083 20.4075 10.5078 20.4075H13.2517C13.3511 20.4075 13.4465 20.368 13.5168 20.2977C13.5872 20.2273 13.6267 20.132 13.6267 20.0325V14.8413C13.6267 13.3734 13.9051 11.9519 15.7249 11.9519C17.5188 11.9519 17.542 13.6315 17.542 14.9363V20.033C17.542 20.1324 17.5815 20.2278 17.6519 20.2981C17.7222 20.3685 17.8176 20.408 17.917 20.408ZM4.16251 5.59012C4.16251 6.70237 5.07816 7.61756 6.19051 7.61756C7.30257 7.61747 8.21766 6.70172 8.21766 5.58966C8.21747 4.47759 7.30229 3.5625 6.19013 3.5625C5.07769 3.5625 4.16251 4.47787 4.16251 5.59012ZM4.81491 20.408H7.56244C7.6619 20.408 7.75728 20.3685 7.82761 20.2981C7.89793 20.2278 7.93744 20.1324 7.93744 20.033V9.53063C7.93744 9.43117 7.89793 9.33579 7.82761 9.26546C7.75728 9.19513 7.6619 9.15563 7.56244 9.15563H4.81491C4.71546 9.15563 4.62007 9.19513 4.54975 9.26546C4.47942 9.33579 4.43991 9.43117 4.43991 9.53063V20.033C4.43991 20.1324 4.47942 20.2278 4.54975 20.2981C4.62007 20.3685 4.71546 20.408 4.81491 20.408Z" fill="white"/>
</g>
<defs>
<clipPath id="clip0_1_434">
<rect width="24" height="24" fill="white" transform="translate(0.600006)"/>
</clipPath>
</defs>
</svg>
