<svg width="24" height="14" viewBox="0 0 24 14" fill="none" xmlns="http://www.w3.org/2000/svg">
<g clip-path="url(#clip0_2_122)">
<path d="M21.7113 0C20.8709 0 20.1425 0.46689 19.7597 1.14855L19.713 1.24193L17.9575 4.69691L15.7351 9.07634L17.1918 11.943L17.2758 12.1018C17.4999 12.494 17.8361 12.8208 18.247 13.0169C18.6578 12.8115 18.994 12.494 19.2181 12.1018L19.3021 11.943L23.6629 3.35227L23.7656 3.14684C23.887 2.8667 23.9524 2.56789 23.9524 2.24107C23.9524 0.999144 22.9532 0 21.7113 0ZM8.25553 4.16466L6.80817 1.30729L6.72413 1.14855C6.50002 0.756361 6.16386 0.429539 5.753 0.233445C5.34214 0.438876 5.00598 0.756361 4.78187 1.14855L4.70717 1.30729L0.346417 9.89806L0.243702 10.1035C0.12231 10.3836 0.0569458 10.6824 0.0569458 11.0093C0.0569458 12.2418 1.05609 13.2503 2.29802 13.2503C3.13842 13.2503 3.86677 12.7834 4.24962 12.1018L4.2963 12.0084L6.05181 8.55342L8.26487 4.17399L8.25553 4.16466Z" fill="#FF5000"/>
<path d="M21.7113 0C20.8709 0 20.1332 0.46689 19.7597 1.14855L19.713 1.24193L17.9575 4.69691L15.7351 9.07634L17.1918 11.943L17.2758 12.1018C17.5 12.494 17.8361 12.8208 18.247 13.0169C18.6578 12.8115 18.994 12.494 19.2181 12.1018L19.3021 11.943L23.6629 3.35227L23.7656 3.14684C23.887 2.8667 23.9524 2.56789 23.9524 2.24107C23.9524 0.999144 22.9439 0 21.7113 0Z" fill="url(#paint0_linear_2_122)"/>
<path d="M2.28871 13.2503C3.12911 13.2503 3.8668 12.7835 4.24031 12.1018L4.287 12.0084L6.0425 8.55343L8.2649 4.17401L6.8082 1.30731L6.72416 1.14856C6.50005 0.756376 6.16389 0.429553 5.75303 0.233459C5.34217 0.438891 5.00601 0.756376 4.7819 1.14856L4.7072 1.30731L0.346447 9.89808L0.234394 10.1128C0.113003 10.393 0.0476379 10.6918 0.0476379 11.0186C0.0476379 12.2512 1.04678 13.2503 2.28871 13.2503Z" fill="url(#paint1_linear_2_122)"/>
<path d="M8.25555 4.16466L6.80819 1.30729L6.72415 1.14855C6.50005 0.756361 6.16388 0.429539 5.75302 0.233445C5.88375 0.16808 6.03316 0.112054 6.17322 0.0747024C6.35064 0.0280134 6.54673 0 6.73349 0H9.79629C10.6367 0.0093378 11.365 0.46689 11.7479 1.14855L11.8133 1.30729L15.7445 9.08568L17.1918 11.943L17.2759 12.1018C17.5 12.494 17.8361 12.8208 18.247 13.0169C18.1163 13.0823 17.9669 13.1383 17.8268 13.1756C17.6494 13.2223 17.4533 13.2503 17.2572 13.2503H14.2131C13.3727 13.241 12.6443 12.7834 12.2615 12.1018L12.1774 11.943L8.25555 4.16466Z" fill="#FF8C44"/>
</g>
<defs>
<linearGradient id="paint0_linear_2_122" x1="125.205" y1="1235.89" x2="1057.41" y2="439.225" gradientUnits="userSpaceOnUse">
<stop stop-color="#D4202C"/>
<stop offset="0.04166" stop-color="#D82D2B" stop-opacity="0.958"/>
<stop offset="0.176" stop-color="#E25226" stop-opacity="0.824"/>
<stop offset="0.3167" stop-color="#EB7123" stop-opacity="0.683"/>
<stop offset="0.4635" stop-color="#F28920" stop-opacity="0.536"/>
<stop offset="0.6188" stop-color="#F69A1E" stop-opacity="0.381"/>
<stop offset="0.7886" stop-color="#F9A41D" stop-opacity="0.211"/>
<stop offset="1" stop-color="#FAA71D" stop-opacity="0"/>
</linearGradient>
<linearGradient id="paint1_linear_2_122" x1="711.86" y1="65.8386" x2="-220.357" y2="862.527" gradientUnits="userSpaceOnUse">
<stop stop-color="#D4202C"/>
<stop offset="0.04166" stop-color="#D82D2B" stop-opacity="0.958"/>
<stop offset="0.176" stop-color="#E25226" stop-opacity="0.824"/>
<stop offset="0.3167" stop-color="#EB7123" stop-opacity="0.683"/>
<stop offset="0.4635" stop-color="#F28920" stop-opacity="0.536"/>
<stop offset="0.6188" stop-color="#F69A1E" stop-opacity="0.381"/>
<stop offset="0.7886" stop-color="#F9A41D" stop-opacity="0.211"/>
<stop offset="1" stop-color="#FAA71D" stop-opacity="0"/>
</linearGradient>
<clipPath id="clip0_2_122">
<rect width="24" height="13.2597" fill="white"/>
</clipPath>
</defs>
</svg>
