<svg width="24" height="24" viewBox="0 0 24 24" fill="none" xmlns="http://www.w3.org/2000/svg">
<g clip-path="url(#clip0_1_410)">
<path d="M14.2969 0.046875L16.7454 0.063C16.7916 0.0988125 16.8289 0.12225 16.8684 0.139875C17.3122 0.3405 17.7934 0.484125 18.1933 0.75075C19.3528 1.52138 20.4851 2.33344 21.6167 3.14512C22.1426 3.52144 22.6611 3.91331 23.1459 4.3395C23.5063 4.656 23.6681 5.10506 23.6691 5.58394L23.6681 20.6535C23.6676 20.8637 23.6316 21.0799 23.5731 21.282C23.3072 22.2034 22.7175 22.8339 21.7896 23.0801C21.3002 23.2097 20.7832 23.25 20.2757 23.2918C19.4839 23.3576 18.6892 23.3899 17.8959 23.4375L16.3952 23.5312L13.9922 23.6726L12.5149 23.7649L10.0884 23.9055L8.83444 23.9569C8.79412 23.9589 8.75681 24.0154 8.71875 24.0469C7.76437 24.0469 6.81075 24.0469 5.84831 24.0315C5.80219 23.9949 5.76712 23.9655 5.72606 23.9539C5.14444 23.7853 4.65675 23.4639 4.28175 22.9972C3.76237 22.3521 3.26887 21.687 2.76937 21.0264C2.1555 20.2148 1.52569 19.4151 0.945561 18.5801C0.604579 18.0923 0.421944 17.5113 0.422436 16.9161C0.420801 12.4654 0.421364 8.01469 0.424124 3.564C0.424124 3.43575 0.446624 3.30619 0.468749 3.17869C0.701624 1.80844 1.716 1.07737 2.92237 0.941812C3.54862 0.8715 4.17919 0.84 4.80844 0.798375L6.47156 0.702375L7.1865 0.6555L9.34275 0.4695L10.5381 0.37575L12.5179 0.235125L14.181 0.136875C14.2215 0.134063 14.2588 0.078375 14.2969 0.046875ZM4.86469 21.4095C4.96444 21.5391 5.07562 21.6621 5.16281 21.7999C5.58544 22.4612 6.19125 22.7014 6.96094 22.6502L12.1751 22.3397L18.0431 21.9851L20.9647 21.7969C21.8306 21.7273 22.2487 21.2593 22.2656 20.3906V20.2031L22.2722 5.97881C22.2729 5.55037 22.125 5.25075 21.7822 5.01131L17.6527 2.10131C16.9884 1.61794 16.2832 1.39237 15.4665 1.45687L10.842 1.79887L6.00656 2.1555L2.9715 2.39213C2.35837 2.44837 1.97831 2.82338 1.86844 3.42488C1.84172 3.57842 1.82873 3.73403 1.82962 3.88987L1.81706 16.3102C1.81275 17.124 2.06175 17.8009 2.54887 18.4234L4.86469 21.4095Z" fill="white"/>
<path d="M4.85381 21.3969L2.54887 18.4232C2.06174 17.8007 1.81274 17.124 1.81706 16.3103L1.82962 3.88988C1.82962 3.73463 1.84124 3.57713 1.86843 3.42488C1.97831 2.82356 2.35837 2.44856 2.97149 2.39213L6.00656 2.1555L10.8422 1.79888L15.4665 1.45688C16.2832 1.39238 16.9884 1.61794 17.6527 2.10131C19.0144 3.09225 20.4015 4.04813 21.7822 5.01131C22.125 5.25075 22.2729 5.55038 22.2722 5.97881L22.2656 20.2039V20.3914C22.2487 21.2593 21.8306 21.7273 20.9647 21.7969C19.9922 21.8753 19.0174 21.9259 18.0431 21.9851L12.1751 22.3395L6.96093 22.6502C6.19124 22.7014 5.58543 22.4612 5.16281 21.7999C5.07562 21.6621 4.96443 21.5391 4.85381 21.3969ZM6.05493 12.7734V19.0524L6.05643 20.2236C6.06656 20.7488 6.32381 21.0103 6.84881 21.0403C6.98062 21.0476 7.11393 21.0431 7.24649 21.0351L11.6419 20.7759L20.0353 20.2961C20.5584 20.2669 20.8001 20.0376 20.8491 19.5191C20.8586 19.4259 20.8556 19.3316 20.8556 19.2379L20.8564 7.14844C20.8564 7.07813 20.8586 7.00781 20.8543 6.9375C20.8228 6.45638 20.6162 6.26006 20.1381 6.28556L15.8122 6.53475C13.7861 6.65263 11.76 6.77125 9.73387 6.89063L6.69506 7.07306C6.30768 7.09781 6.13256 7.26488 6.07406 7.64363C6.06021 7.74407 6.05406 7.84543 6.05568 7.94681L6.05493 12.7734ZM16.7747 2.88713C16.4077 2.688 16.0093 2.622 15.5991 2.64469C14.9685 2.67919 14.3379 2.73113 13.7072 2.77669L4.71674 3.42994C4.44506 3.44963 4.17187 3.46931 3.90374 3.51788C3.81374 3.534 3.70012 3.62475 3.67237 3.70688C3.65174 3.76463 3.74268 3.88125 3.80924 3.945C3.93243 4.06275 4.07437 4.16156 4.20862 4.26788C4.52718 4.51913 4.86618 4.74825 5.15849 5.02594C5.71293 5.55244 6.35812 5.67413 7.09724 5.62069L12.9163 5.25581L19.1807 4.88006C19.2379 4.87725 19.2951 4.85963 19.4209 4.83619C19.3059 4.71675 19.2392 4.62525 19.1522 4.56075C18.8453 4.3341 18.5354 4.11145 18.2227 3.89288C17.7423 3.55438 17.2596 3.21912 16.7747 2.88713Z" fill="black"/>
<path d="M6.05493 12.75L6.05568 7.9468C6.05568 7.84555 6.05868 7.74318 6.07406 7.64361C6.13256 7.26486 6.30768 7.09799 6.69506 7.07305L9.73387 6.89061L15.8122 6.53474L20.1379 6.28555C20.6162 6.26005 20.8228 6.45693 20.8541 6.93749C20.8586 7.0078 20.8564 7.07811 20.8564 7.14843L20.8556 19.2379L20.8491 19.5191C20.8001 20.0375 20.5584 20.2669 20.0353 20.2961L11.6419 20.7759L7.24649 21.035L6.84899 21.0403C6.32381 21.0103 6.06656 20.7487 6.05643 20.2243L6.05493 19.0524V12.75ZM14.6361 12.7624L12.2233 9.08642C12.1391 8.95818 12.0564 8.9158 11.9012 8.93268L10.8727 9.00205L8.98087 9.14061C8.51587 9.18318 8.23462 9.62043 8.36343 10.0738L9.36543 10.1595V18.2769L8.68293 18.4695C8.38031 18.5587 8.25074 18.8137 8.35256 19.1396L10.6603 19.0071L11.5693 18.9324C11.9612 18.8679 12.1721 18.6277 12.2248 18.2359L10.9629 17.9481V11.8425L11.0567 11.9737L13.9569 16.5022C14.3832 17.1636 14.8211 17.8174 15.2702 18.4635C15.5902 18.9229 16.062 19.0635 16.5922 18.9491C16.9241 18.8782 17.2427 18.7434 17.5678 18.6386C17.7371 18.5837 17.7949 18.4826 17.7941 18.2929L17.7885 9.94911C17.7885 9.46143 17.7885 9.46143 18.2709 9.36411C18.7588 9.26586 18.8811 9.07105 18.7697 8.54961L15.8541 8.7268C15.5368 8.74949 15.2966 9.01461 15.2484 9.32305C15.2248 9.47174 15.2556 9.55368 15.4335 9.56399L16.3162 9.66149V15.3201C15.7571 14.4671 15.1971 13.6148 14.6361 12.7631V12.7624ZM16.7906 2.89518C17.2692 3.2257 17.7465 3.5582 18.2224 3.89268C18.5351 4.11131 18.845 4.33402 19.152 4.56074C19.239 4.62524 19.3057 4.71674 19.4207 4.83618L19.1805 4.88005L12.9161 5.2558L7.09706 5.62068C6.35793 5.67411 5.71274 5.55243 5.15831 5.02593C4.86599 4.74843 4.52699 4.51911 4.20824 4.26786C4.07418 4.16155 3.93224 4.06274 3.80906 3.9448C3.74249 3.88105 3.65156 3.7648 3.67218 3.70668C3.69993 3.62474 3.81431 3.53399 3.90356 3.51786C4.17168 3.46949 4.44487 3.44961 4.71656 3.42993L13.7072 2.77668L15.5991 2.64468C16.0091 2.62218 16.4076 2.6878 16.7906 2.89518Z" fill="white"/>
<path d="M14.6462 12.7762L16.3162 15.3201V9.66131L15.4337 9.56381C15.2556 9.55368 15.2248 9.47175 15.2483 9.32306C15.2966 9.01462 15.537 8.7495 15.8539 8.72681L18.7697 8.54962C18.8811 9.07087 18.7588 9.26587 18.2709 9.36393C17.7883 9.46068 17.7883 9.46068 17.7883 9.94912L17.7941 18.2929C17.7949 18.4826 17.7371 18.5837 17.5678 18.6386L16.5922 18.9491C16.062 19.0627 15.5903 18.9229 15.2704 18.4635C14.8214 17.8173 14.3836 17.1635 13.9571 16.5022L11.0565 11.9736C11.0361 11.9413 11.0126 11.9113 10.9627 11.8425V17.9481L12.2248 18.2359C12.1721 18.6277 11.9612 18.8677 11.5693 18.9324C11.2704 18.9814 10.9637 18.9887 10.6603 19.0071L8.35256 19.1396C8.25075 18.8137 8.38031 18.5587 8.68294 18.4695L9.36544 18.2769V10.1595L8.36344 10.0738C8.23462 9.62043 8.51587 9.18318 8.98087 9.14062C9.61012 9.08193 10.2422 9.04612 10.8727 9.00225C11.2155 8.97881 11.5597 8.97 11.9012 8.93268C12.0564 8.91581 12.1393 8.95818 12.2233 9.08643L14.6462 12.7762Z" fill="black"/>
</g>
<defs>
<clipPath id="clip0_1_410">
<rect width="24" height="24" fill="white"/>
</clipPath>
</defs>
</svg>
