<svg width="24" height="24" viewBox="0 0 24 24" fill="none" xmlns="http://www.w3.org/2000/svg">
<g clip-path="url(#clip0_1_432)">
<path d="M22.282 9.82099C22.5492 9.0128 22.6414 8.15701 22.5524 7.31045C22.4634 6.4639 22.1954 5.64597 21.766 4.91099C21.1275 3.80079 20.1532 2.92184 18.9833 2.4007C17.8134 1.87956 16.5084 1.7431 15.256 2.01099C14.5447 1.21966 13.6377 0.62939 12.6261 0.299454C11.6145 -0.0304816 10.5339 -0.0884752 9.49276 0.131296C8.45165 0.351067 7.48669 0.840868 6.69475 1.55152C5.90282 2.26217 5.31178 3.16867 4.98098 4.17999C4.14695 4.35197 3.35907 4.69952 2.66974 5.19953C1.98041 5.69954 1.40542 6.34057 0.982981 7.07999C0.338542 8.18896 0.0632206 9.47404 0.196771 10.7497C0.330321 12.0253 0.865832 13.2255 1.72598 14.177C1.45645 14.9847 1.36252 15.8406 1.45047 16.6876C1.53843 17.5345 1.80623 18.3529 2.23598 19.088C2.87474 20.1991 3.84988 21.0787 5.02078 21.5999C6.19169 22.1211 7.49787 22.257 8.75098 21.988C9.31681 22.624 10.0115 23.1324 10.7889 23.4793C11.5663 23.8262 12.4087 24.0037 13.26 24C14.5435 24.0005 15.7941 23.5935 16.8314 22.8376C17.8688 22.0817 18.6393 21.016 19.032 19.794C19.8658 19.6219 20.6535 19.2743 21.3427 18.7743C22.0318 18.2742 22.6067 17.6333 23.029 16.894C23.6658 15.7867 23.9364 14.5066 23.8022 13.2364C23.6681 11.9661 23.136 10.7708 22.282 9.82099ZM13.26 22.43C12.209 22.4314 11.191 22.0633 10.384 21.39L10.525 21.309L15.304 18.551C15.4224 18.4808 15.5207 18.3812 15.5894 18.2619C15.658 18.1426 15.6947 18.0076 15.696 17.87V11.133L17.716 12.301C17.726 12.306 17.7347 12.3133 17.7413 12.3224C17.7479 12.3314 17.7523 12.3419 17.754 12.353V17.936C17.7513 19.1271 17.277 20.2686 16.4348 21.1108C15.5926 21.953 14.4511 22.4273 13.26 22.43ZM3.59998 18.304C3.07248 17.3936 2.88303 16.3263 3.06498 15.29L3.20698 15.375L7.98998 18.134C8.10822 18.2034 8.24286 18.2401 8.37998 18.2401C8.51711 18.2401 8.65175 18.2034 8.76998 18.134L14.613 14.765V17.097C14.6126 17.1091 14.6094 17.1211 14.6036 17.1318C14.5979 17.1425 14.5898 17.1518 14.58 17.159L9.73998 19.95C8.70718 20.5446 7.4807 20.7052 6.32962 20.3966C5.17855 20.088 4.19688 19.3354 3.59998 18.304ZM2.33998 7.89599C2.87195 6.98043 3.70975 6.2818 4.70598 5.92299V11.6C4.70448 11.7372 4.73966 11.8723 4.80787 11.9913C4.87609 12.1103 4.97486 12.2089 5.09398 12.277L10.909 15.631L8.88898 16.799C8.87794 16.8044 8.8658 16.8073 8.85348 16.8073C8.84117 16.8073 8.82902 16.8044 8.81798 16.799L3.98798 14.013C2.95672 13.4157 2.20423 12.434 1.89533 11.2829C1.58644 10.1319 1.74633 8.90537 2.33998 7.87199V7.89599ZM18.937 11.751L13.104 8.36399L15.119 7.19999C15.13 7.19452 15.1422 7.19168 15.1545 7.19168C15.1668 7.19168 15.1789 7.19452 15.19 7.19999L20.02 9.99099C20.7589 10.4169 21.3614 11.0443 21.757 11.7999C22.1526 12.5555 22.3251 13.4081 22.2542 14.258C22.1833 15.108 21.872 15.9202 21.3567 16.5998C20.8413 17.2794 20.1433 17.7984 19.344 18.096V12.418C19.3398 12.2811 19.3001 12.1476 19.2287 12.0306C19.1574 11.9137 19.0568 11.8173 18.937 11.751ZM20.947 8.72799L20.806 8.64299L16.032 5.86099C15.9128 5.79159 15.7774 5.75504 15.6395 5.75504C15.5016 5.75504 15.3661 5.79159 15.247 5.86099L9.40898 9.22999V6.89699C9.40816 6.88529 9.4103 6.87357 9.41519 6.86291C9.42008 6.85225 9.42758 6.84299 9.43698 6.83599L14.267 4.04899C15.0073 3.62291 15.8537 3.41635 16.7071 3.45346C17.5604 3.49056 18.3857 3.76979 19.0862 4.25852C19.7868 4.74724 20.3338 5.42527 20.6633 6.21336C20.9928 7.00145 21.0912 7.86705 20.947 8.70899V8.72799ZM8.30698 12.863L6.28698 11.699C6.27682 11.6929 6.26814 11.6846 6.26157 11.6748C6.255 11.6649 6.2507 11.6537 6.24898 11.642V6.07499C6.25066 5.22108 6.49525 4.38528 6.9542 3.6652C7.41315 2.94512 8.06751 2.37048 8.84085 2.0084C9.61418 1.64632 10.4746 1.51175 11.3215 1.6204C12.1685 1.72905 12.9671 2.07643 13.624 2.62199L13.482 2.70199L8.70398 5.45999C8.58539 5.53006 8.4869 5.62957 8.41805 5.74887C8.34919 5.86818 8.31232 6.00324 8.31098 6.14099L8.30698 12.863ZM9.40398 10.498L12.006 8.99799L14.613 10.498V13.497L12.016 14.997L9.40898 13.497L9.40398 10.498Z" fill="#0ACF83"/>
</g>
<defs>
<clipPath id="clip0_1_432">
<rect width="24" height="24" fill="white"/>
</clipPath>
</defs>
</svg>
