<svg width="24" height="24" viewBox="0 0 24 24" fill="none" xmlns="http://www.w3.org/2000/svg">
<path d="M22.398 7.09H20.088V0.068L12.578 6.422V0.158H11.422V6.354L4.48999 0V7.09H1.60199V17.487H4.48999V24L11.423 17.64V23.841H12.578V17.794L19.51 23.975V17.487H22.398V7.09ZM18.932 2.559V7.089H13.577L18.932 2.559ZM5.64599 2.626L10.515 7.09H5.64499L5.64599 2.626ZM2.75799 16.332V8.245H10.605L4.48999 14.36V16.332H2.75799ZM5.64599 21.372V14.838L11.422 9.062V16.073L5.64599 21.372ZM18.354 21.397L12.578 16.247V9.061L18.354 14.837V21.397ZM21.243 16.332H19.51V14.36L13.395 8.245H21.243V16.332Z" fill="white"/>
</svg>
