<svg width="25" height="24" viewBox="0 0 25 24" fill="none" xmlns="http://www.w3.org/2000/svg">
<g clip-path="url(#clip0_2_26)">
<path d="M10.776 20.058L11.634 18.778L18.147 8.93997C18.717 8.07997 18.173 6.92597 17.142 6.80897L0.978 4.94997L9.351 20.005C9.42203 20.1285 9.52333 20.232 9.64537 20.3056C9.7674 20.3792 9.90616 20.4206 10.0486 20.4258C10.191 20.431 10.3324 20.3998 10.4595 20.3353C10.5866 20.2708 10.6951 20.175 10.775 20.057L10.776 20.058ZM24.186 7.13997L14.524 21.75C13.488 23.317 11.144 23.228 10.231 21.588L10.138 21.42C10.438 21.41 10.732 21.334 10.993 21.185C11.2378 21.0442 11.4472 20.8492 11.605 20.615L12.465 19.335L18.981 9.49097C19.441 8.79697 19.506 7.93097 19.154 7.17697C18.9816 6.80542 18.7162 6.48466 18.3835 6.24571C18.0509 6.00675 17.6622 5.8577 17.255 5.81297L1.093 3.95597L0.617 3.90197C0.437 2.39197 1.701 0.949973 3.384 1.14297L22.375 3.30297C24.231 3.51297 25.21 5.59197 24.187 7.14097L24.186 7.13997Z" fill="white"/>
</g>
<defs>
<clipPath id="clip0_2_26">
<rect width="24" height="24" fill="white" transform="translate(0.599976)"/>
</clipPath>
</defs>
</svg>
