<svg width="21" height="24" viewBox="0 0 21 24" fill="none" xmlns="http://www.w3.org/2000/svg">
<g clip-path="url(#clip0_1_426)">
<path d="M0.105957 1.4961C0.105957 0.669818 0.775775 0 1.60206 0H8.58388C9.41016 0 10.08 0.669818 10.08 1.4961V7.97922H1.60206C0.775775 7.97922 0.105957 7.3094 0.105957 6.48312V1.4961ZM10.08 7.97922H18.5579C19.3842 7.97922 20.054 8.64904 20.054 9.47532V14.4623C20.054 15.2886 19.3842 15.9584 18.5579 15.9584H10.08V7.97922ZM0.105957 17.4545C0.105957 16.6283 0.775775 15.9584 1.60206 15.9584H10.08V22.4416C10.08 23.2678 9.41016 23.9377 8.58388 23.9377H1.60206C0.775775 23.9377 0.105957 23.2678 0.105957 22.4416V17.4545Z" fill="#F26207"/>
</g>
<defs>
<clipPath id="clip0_1_426">
<rect width="20.16" height="24" fill="white"/>
</clipPath>
</defs>
</svg>
