<svg width="29" height="12" viewBox="0 0 29 12" fill="none" xmlns="http://www.w3.org/2000/svg">
<g clip-path="url(#clip0_2_116)">
<path d="M28.7551 6.17271C28.7551 4.13108 27.7662 2.52011 25.8761 2.52011C23.978 2.52011 22.8296 4.13114 22.8296 6.15679C22.8296 8.55723 24.1854 9.76946 26.1313 9.76946C27.0804 9.76946 27.7981 9.55413 28.3404 9.2511V7.65606C27.7982 7.92723 27.1761 8.09473 26.3865 8.09473C25.6129 8.09473 24.9271 7.82355 24.8394 6.8825H28.7392C28.7392 6.77877 28.7551 6.36409 28.7551 6.17271ZM24.8154 5.41508C24.8154 4.51391 25.3658 4.13905 25.8682 4.13905C26.3546 4.13905 26.873 4.51391 26.873 5.41508H24.8154ZM19.7513 2.52011C18.9697 2.52011 18.4673 2.88695 18.1882 3.14221L18.0844 2.64774H16.33V11.9466L18.3237 11.524L18.3317 9.26703C18.6188 9.47439 19.0415 9.76946 19.7433 9.76946C21.1709 9.76946 22.4708 8.62105 22.4708 6.09297C22.4628 3.78017 21.1469 2.52011 19.7513 2.52011M19.2727 8.01493C18.8022 8.01493 18.523 7.8475 18.3317 7.64013L18.3237 4.68135C18.531 4.45009 18.8181 4.29062 19.2727 4.29062C19.9984 4.29062 20.5009 5.10404 20.5009 6.14877C20.5009 7.21744 20.0064 8.01493 19.2727 8.01493ZM13.5865 2.04959L15.5883 1.61893V0L13.5865 0.422692V2.04959ZM13.5865 2.6557H15.5883V9.63387H13.5865V2.6557ZM11.4413 3.24583L11.3136 2.6557H9.59103V9.63387H11.5848V4.90469C12.0553 4.29062 12.8528 4.40226 13.1001 4.48996V2.6557C12.8449 2.55998 11.9118 2.38452 11.4413 3.24583ZM7.45368 0.925121L5.50778 1.33979L5.49981 7.72783C5.49981 8.90821 6.38507 9.77742 7.56538 9.77742C8.21933 9.77742 8.69781 9.65781 8.96097 9.51426V7.89533C8.70583 7.99901 7.44572 8.36585 7.44572 7.18553V4.35437H8.96097V2.6557H7.44572L7.45368 0.925121ZM2.06254 4.68135C2.06254 4.37036 2.31774 4.25069 2.74049 4.25069C3.34654 4.25069 4.11213 4.43417 4.71824 4.76114V2.88695C4.05634 2.62379 3.40239 2.52011 2.74049 2.52011C1.1215 2.52011 0.0448599 3.3655 0.0448599 4.77712C0.0448599 6.97817 3.07536 6.62731 3.07536 7.57637C3.07536 7.94316 2.75641 8.06282 2.30978 8.06282C1.64787 8.06282 0.802486 7.79165 0.132561 7.4248V9.32288C0.874262 9.64189 1.62393 9.77742 2.30978 9.77742C3.96858 9.77742 5.10903 8.95604 5.10903 7.52849C5.10107 5.15193 2.06254 5.57456 2.06254 4.68135Z" fill="#635BFF"/>
</g>
<defs>
<clipPath id="clip0_2_116">
<rect width="28.8" height="12" fill="white"/>
</clipPath>
</defs>
</svg>
