<svg width="24" height="24" viewBox="0 0 24 24" fill="none" xmlns="http://www.w3.org/2000/svg">
<g clip-path="url(#clip0_2_127)">
<path d="M13.7313 23.5966C13.1182 24.3686 11.8753 23.9455 11.8606 22.9599L11.6446 8.54309H21.3385C23.0942 8.54309 24.0735 10.571 22.9817 11.9462L13.7313 23.5966Z" fill="url(#paint0_linear_2_127)"/>
<path d="M13.7313 23.5966C13.1182 24.3686 11.8753 23.9455 11.8606 22.9599L11.6446 8.54309H21.3385C23.0942 8.54309 24.0735 10.571 22.9817 11.9462L13.7313 23.5966Z" fill="url(#paint1_linear_2_127)" fill-opacity="0.2"/>
<path d="M9.7888 0.398763C10.4018 -0.373343 11.6447 0.0496227 11.6595 1.03536L11.7542 15.4521H2.18162C0.425791 15.4521 -0.553555 13.4242 0.538308 12.0491L9.7888 0.398763Z" fill="#3ECF8E"/>
</g>
<defs>
<linearGradient id="paint0_linear_2_127" x1="257.733" y1="328.202" x2="813.589" y2="561.325" gradientUnits="userSpaceOnUse">
<stop stop-color="#249361"/>
<stop offset="1" stop-color="#3ECF8E"/>
</linearGradient>
<linearGradient id="paint1_linear_2_127" x1="35.1305" y1="-194.776" x2="391.973" y2="476.932" gradientUnits="userSpaceOnUse">
<stop/>
<stop offset="1" stop-opacity="0"/>
</linearGradient>
<clipPath id="clip0_2_127">
<rect width="23.52" height="24" fill="white"/>
</clipPath>
</defs>
</svg>
