<svg width="25" height="24" viewBox="0 0 25 24" fill="none" xmlns="http://www.w3.org/2000/svg">
<g clip-path="url(#clip0_2_167)">
<path d="M1.30114 11.8564C1.30058 13.8729 1.82746 15.8418 2.82932 17.5772L1.20532 23.5067L7.27342 21.9156C8.95177 22.8293 10.8322 23.3081 12.7432 23.3082H12.7482C19.0566 23.3082 24.1917 18.1749 24.1944 11.8654C24.1956 8.80801 23.0061 5.93304 20.8448 3.77006C18.6838 1.60727 15.8099 0.415549 12.7477 0.414154C6.43863 0.414154 1.30383 5.54718 1.30123 11.8564" fill="url(#paint0_linear_2_167)"/>
<path d="M0.892504 11.8527C0.891852 13.9417 1.43762 15.981 2.4752 17.7786L0.792969 23.9207L7.07864 22.2726C8.81055 23.2168 10.7605 23.7147 12.7447 23.7154H12.7498C19.2845 23.7154 24.6041 18.3975 24.6069 11.8621C24.608 8.69488 23.3757 5.71656 21.1372 3.47609C18.8984 1.23591 15.9216 0.00130233 12.7498 0C6.21399 0 0.895108 5.31721 0.892504 11.8527ZM4.63585 17.469L4.40115 17.0965C3.41455 15.5277 2.89381 13.7149 2.89455 11.8534C2.8966 6.4213 7.31743 2.00186 12.7535 2.00186C15.3861 2.00298 17.8601 3.02921 19.721 4.89116C21.5817 6.7533 22.6056 9.22865 22.605 11.8614C22.6026 17.2935 18.1816 21.7135 12.7498 21.7135H12.7459C10.9772 21.7126 9.24264 21.2376 7.7299 20.34L7.3699 20.1265L3.63985 21.1045L4.63585 17.469Z" fill="url(#paint1_linear_2_167)"/>
<path d="M9.78625 6.89749C9.5643 6.40419 9.33071 6.39424 9.11964 6.38559C8.94681 6.37814 8.74923 6.3787 8.55183 6.3787C8.35425 6.3787 8.03323 6.45303 7.76188 6.74931C7.49025 7.04587 6.72485 7.76252 6.72485 9.2201C6.72485 10.6778 7.78653 12.0864 7.93453 12.2843C8.08271 12.4818 9.98411 15.5687 12.9955 16.7562C15.4982 17.7431 16.0075 17.5468 16.5506 17.4973C17.0939 17.448 18.3036 16.7808 18.5503 16.089C18.7973 15.3973 18.7973 14.8044 18.7233 14.6805C18.6492 14.557 18.4516 14.4829 18.1554 14.3348C17.859 14.1866 16.4024 13.4699 16.1309 13.371C15.8593 13.2722 15.6618 13.2229 15.4642 13.5195C15.2666 13.8157 14.6993 14.4829 14.5263 14.6805C14.3536 14.8785 14.1807 14.9032 13.8845 14.755C13.588 14.6063 12.6339 14.2939 11.5019 13.2847C10.6211 12.4994 10.0265 11.5296 9.85369 11.2329C9.68085 10.9367 9.83518 10.7762 9.98374 10.6286C10.1169 10.4958 10.2801 10.2826 10.4284 10.1097C10.5761 9.93666 10.6254 9.81321 10.7242 9.61563C10.8231 9.41786 10.7736 9.24484 10.6996 9.09666C10.6254 8.94847 10.0497 7.48326 9.78625 6.89749Z" fill="white"/>
</g>
<defs>
<linearGradient id="paint0_linear_2_167" x1="1150.66" y1="2309.67" x2="1150.66" y2="0.414154" gradientUnits="userSpaceOnUse">
<stop stop-color="#1FAF38"/>
<stop offset="1" stop-color="#60D669"/>
</linearGradient>
<linearGradient id="paint1_linear_2_167" x1="1191.49" y1="2392.07" x2="1191.49" y2="0" gradientUnits="userSpaceOnUse">
<stop stop-color="#F9F9F9"/>
<stop offset="1" stop-color="white"/>
</linearGradient>
<clipPath id="clip0_2_167">
<rect width="24" height="24" fill="white" transform="translate(0.699951)"/>
</clipPath>
</defs>
</svg>
