<svg width="35" height="24" viewBox="0 0 35 24" fill="none" xmlns="http://www.w3.org/2000/svg">
<g clip-path="url(#clip0_1_423)">
<path d="M33.4728 3.74333C33.277 3.01981 32.8951 2.36019 32.3651 1.83017C31.8351 1.30015 31.1755 0.918215 30.452 0.7224C27.8032 0 17.1427 0 17.1427 0C17.1427 0 6.48162 0.0218666 3.83282 0.744267C3.10928 0.940093 2.44967 1.32205 1.91967 1.85209C1.38967 2.38214 1.00778 3.04178 0.812015 3.76533C0.010815 8.47173 -0.299985 15.6432 0.834015 20.1613C1.0298 20.8849 1.4117 21.5445 1.9417 22.0745C2.4717 22.6045 3.1313 22.9865 3.85482 23.1823C6.50362 23.9047 17.1644 23.9047 17.1644 23.9047C17.1644 23.9047 27.8251 23.9047 30.4738 23.1823C31.1973 22.9865 31.8569 22.6045 32.3869 22.0745C32.917 21.5445 33.2989 20.8849 33.4947 20.1613C34.3397 15.4483 34.6002 8.2812 33.4728 3.74333Z" fill="#FF0000"/>
<path d="M13.7495 17.0747L22.5932 11.9523L13.7495 6.82986V17.0747Z" fill="white"/>
</g>
<defs>
<clipPath id="clip0_1_423">
<rect width="34.32" height="24" fill="white"/>
</clipPath>
</defs>
</svg>
